<svg width="250" height="64" viewBox="0 0 250 64" fill="none" xmlns="http://www.w3.org/2000/svg">
<rect width="250" height="63.9932" rx="31.9966" fill="#FFC107"/>
<path d="M77.9175 31.804H84.9976V41.0569C84.0617 41.3661 83.0892 41.6143 82.0801 41.8015C81.071 41.9806 79.9276 42.0701 78.6499 42.0701C76.8758 42.0701 75.3703 41.7201 74.1333 41.0203C72.8963 40.3204 71.9564 39.2869 71.3135 37.9197C70.6706 36.5525 70.3491 34.872 70.3491 32.8782C70.3491 31.0064 70.7072 29.387 71.4233 28.0198C72.1476 26.6526 73.2015 25.5946 74.585 24.8459C75.9766 24.0972 77.6733 23.7229 79.6753 23.7229C80.6193 23.7229 81.5511 23.8246 82.4707 24.0281C83.3903 24.2315 84.2245 24.496 84.9732 24.8215L83.7158 27.8489C83.1706 27.5722 82.548 27.3403 81.8482 27.1531C81.1483 26.9659 80.4159 26.8723 79.6509 26.8723C78.5523 26.8723 77.596 27.1246 76.7822 27.6292C75.9766 28.1337 75.3499 28.8417 74.9024 29.7532C74.4629 30.6565 74.2432 31.7226 74.2432 32.9514C74.2432 34.1152 74.4019 35.1487 74.7192 36.052C75.0366 36.9472 75.5371 37.6511 76.2207 38.1638C76.9043 38.6684 77.7954 38.9207 78.8941 38.9207C79.4312 38.9207 79.8828 38.8962 80.249 38.8474C80.6234 38.7904 80.9733 38.7335 81.2988 38.6765V34.9534H77.9175V31.804ZM94.5923 27.9221C95.8537 27.9221 96.9401 28.1663 97.8516 28.6545C98.763 29.1347 99.467 29.8346 99.9634 30.7542C100.46 31.6737 100.708 32.7968 100.708 34.1233V35.9299H91.9067C91.9474 36.9797 92.2607 37.8057 92.8467 38.408C93.4408 39.002 94.2627 39.2991 95.3125 39.2991C96.1833 39.2991 96.9808 39.2096 97.7051 39.0305C98.4294 38.8515 99.174 38.5829 99.939 38.2249V41.1057C99.2635 41.4394 98.5555 41.6835 97.8149 41.8381C97.0825 41.9928 96.1914 42.0701 95.1416 42.0701C93.7744 42.0701 92.5619 41.8178 91.5039 41.3132C90.4541 40.8087 89.6281 40.0396 89.0259 39.0061C88.4318 37.9726 88.1348 36.6705 88.1348 35.0999C88.1348 33.5048 88.4033 32.1783 88.9404 31.1204C89.4857 30.0543 90.2425 29.2568 91.2109 28.7278C92.1794 28.1907 93.3065 27.9221 94.5923 27.9221ZM94.6167 30.571C93.8924 30.571 93.2902 30.803 92.8101 31.2668C92.3381 31.7307 92.0654 32.4591 91.9922 33.4519H97.2168C97.2087 32.8985 97.1069 32.4062 96.9116 31.9749C96.7245 31.5435 96.4396 31.2017 96.0571 30.9495C95.6828 30.6972 95.2026 30.571 94.6167 30.571ZM109.485 39.1038C109.892 39.1038 110.286 39.0631 110.669 38.9817C111.06 38.9003 111.446 38.7986 111.829 38.6765V41.4475C111.43 41.6265 110.933 41.773 110.339 41.887C109.753 42.009 109.111 42.0701 108.411 42.0701C107.597 42.0701 106.864 41.9399 106.213 41.6794C105.57 41.4109 105.062 40.9511 104.688 40.3C104.321 39.6409 104.138 38.7253 104.138 37.5535V30.9739H102.356V29.3992L104.407 28.1541L105.481 25.2732H107.861V28.1785H111.682V30.9739H107.861V37.5535C107.861 38.0743 108.008 38.4649 108.301 38.7253C108.602 38.9776 108.997 39.1038 109.485 39.1038ZM131.921 36.8699C131.921 37.9278 131.665 38.8474 131.152 39.6287C130.64 40.4099 129.891 41.0121 128.906 41.4353C127.93 41.8585 126.742 42.0701 125.342 42.0701C124.723 42.0701 124.117 42.0294 123.523 41.948C122.937 41.8666 122.371 41.7486 121.826 41.594C121.289 41.4312 120.776 41.2319 120.288 40.9958V37.4802C121.134 37.8546 122.013 38.1923 122.925 38.4934C123.836 38.7945 124.74 38.9451 125.635 38.9451C126.253 38.9451 126.75 38.8637 127.124 38.7009C127.507 38.5382 127.783 38.3144 127.954 38.0295C128.125 37.7447 128.21 37.4192 128.21 37.053C128.21 36.6054 128.06 36.2229 127.759 35.9055C127.458 35.5881 127.043 35.2911 126.514 35.0144C125.993 34.7377 125.403 34.4407 124.744 34.1233C124.329 33.928 123.877 33.692 123.389 33.4153C122.9 33.1305 122.437 32.7846 121.997 32.3777C121.558 31.9708 121.195 31.4784 120.911 30.9006C120.634 30.3147 120.496 29.6148 120.496 28.801C120.496 27.7349 120.74 26.8235 121.228 26.0667C121.716 25.3098 122.412 24.732 123.315 24.3333C124.227 23.9264 125.301 23.7229 126.538 23.7229C127.466 23.7229 128.349 23.8328 129.187 24.0525C130.033 24.2641 130.916 24.5733 131.836 24.9802L130.615 27.9221C129.793 27.5885 129.057 27.3321 128.406 27.1531C127.755 26.9659 127.091 26.8723 126.416 26.8723C125.944 26.8723 125.541 26.9496 125.208 27.1042C124.874 27.2507 124.622 27.4623 124.451 27.739C124.28 28.0076 124.194 28.3209 124.194 28.679C124.194 29.1021 124.316 29.4602 124.561 29.7532C124.813 30.038 125.187 30.3147 125.684 30.5833C126.188 30.8518 126.815 31.1651 127.563 31.5232C128.475 31.9545 129.252 32.4062 129.895 32.8782C130.546 33.342 131.047 33.8914 131.396 34.5261C131.746 35.1528 131.921 35.934 131.921 36.8699ZM140.613 39.1038C141.02 39.1038 141.414 39.0631 141.797 38.9817C142.188 38.9003 142.574 38.7986 142.957 38.6765V41.4475C142.558 41.6265 142.061 41.773 141.467 41.887C140.881 42.009 140.238 42.0701 139.539 42.0701C138.725 42.0701 137.992 41.9399 137.341 41.6794C136.698 41.4109 136.19 40.9511 135.815 40.3C135.449 39.6409 135.266 38.7253 135.266 37.5535V30.9739H133.484V29.3992L135.535 28.1541L136.609 25.2732H138.989V28.1785H142.81V30.9739H138.989V37.5535C138.989 38.0743 139.136 38.4649 139.429 38.7253C139.73 38.9776 140.125 39.1038 140.613 39.1038ZM151.318 27.8977C153.149 27.8977 154.553 28.2965 155.53 29.094C156.506 29.8915 156.995 31.1041 156.995 32.7317V41.8259H154.395L153.674 39.9705H153.577C153.186 40.4587 152.787 40.8575 152.38 41.1667C151.973 41.476 151.506 41.7039 150.977 41.8503C150.448 41.9968 149.805 42.0701 149.048 42.0701C148.242 42.0701 147.518 41.9154 146.875 41.6062C146.24 41.297 145.74 40.825 145.374 40.1902C145.007 39.5473 144.824 38.7335 144.824 37.7488C144.824 36.3002 145.333 35.2341 146.35 34.5505C147.367 33.8588 148.893 33.4763 150.928 33.4031L153.296 33.3298V32.7317C153.296 32.0155 153.109 31.4906 152.734 31.157C152.36 30.8233 151.839 30.6565 151.172 30.6565C150.513 30.6565 149.866 30.7501 149.231 30.9373C148.596 31.1244 147.961 31.3604 147.327 31.6453L146.094 29.1306C146.818 28.7481 147.628 28.447 148.523 28.2273C149.426 28.0076 150.358 27.8977 151.318 27.8977ZM153.296 35.5027L151.855 35.5515C150.651 35.5841 149.813 35.7997 149.341 36.1985C148.877 36.5972 148.645 37.1222 148.645 37.7732C148.645 38.3429 148.812 38.7498 149.146 38.9939C149.479 39.2299 149.915 39.3479 150.452 39.3479C151.249 39.3479 151.921 39.1119 152.466 38.6399C153.019 38.1679 153.296 37.4965 153.296 36.6257V35.5027ZM168.457 27.9221C168.644 27.9221 168.86 27.9343 169.104 27.9587C169.356 27.975 169.56 27.9994 169.714 28.032L169.434 31.5232C169.312 31.4825 169.137 31.454 168.909 31.4377C168.689 31.4133 168.498 31.4011 168.335 31.4011C167.855 31.4011 167.387 31.4622 166.931 31.5842C166.484 31.7063 166.081 31.9057 165.723 32.1824C165.365 32.4509 165.08 32.809 164.868 33.2566C164.665 33.696 164.563 34.2372 164.563 34.8801V41.8259H160.84V28.1785H163.66L164.209 30.4734H164.392C164.661 30.0095 164.994 29.5863 165.393 29.2039C165.8 28.8132 166.26 28.504 166.772 28.2761C167.293 28.0401 167.855 27.9221 168.457 27.9221ZM177.942 39.1038C178.349 39.1038 178.743 39.0631 179.126 38.9817C179.517 38.9003 179.903 38.7986 180.286 38.6765V41.4475C179.887 41.6265 179.39 41.773 178.796 41.887C178.21 42.009 177.568 42.0701 176.868 42.0701C176.054 42.0701 175.321 41.9399 174.67 41.6794C174.028 41.4109 173.519 40.9511 173.145 40.3C172.778 39.6409 172.595 38.7253 172.595 37.5535V30.9739H170.813V29.3992L172.864 28.1541L173.938 25.2732H176.318V28.1785H180.139V30.9739H176.318V37.5535C176.318 38.0743 176.465 38.4649 176.758 38.7253C177.059 38.9776 177.454 39.1038 177.942 39.1038Z" fill="#103783"/>
</svg>
